<svg width="100" height="100" viewBox="0 0 100 100" fill="none" xmlns="http://www.w3.org/2000/svg">
<path fill-rule="evenodd" clip-rule="evenodd" d="M54.4767 0.148438V0.247485V10.1522C76.2177 12.8265 91.6196 32.5865 88.9453 54.3275C86.6672 72.3542 72.5034 86.6665 54.4767 88.7961V98.7008C81.7148 95.977 101.524 71.8094 98.8006 44.5713C96.572 21.0475 77.9015 2.47606 54.4767 0.148438V0.148438ZM44.5715 0.297066C34.9144 1.23802 25.7029 4.9523 18.1753 11.1923L25.2572 18.5218C30.8039 14.0647 37.4896 11.1923 44.5715 10.2018V0.297066V0.297066ZM11.1928 18.1751C4.95281 25.7027 1.23852 34.8646 0.248047 44.5713H10.1528C11.0938 37.5389 13.8671 30.8532 18.2747 25.257L11.1928 18.1751V18.1751ZM66.8581 32.1903L42.6905 56.358L32.1915 45.8589L26.9419 51.1084L42.6905 66.857L72.1077 37.4399L66.8581 32.1903V32.1903ZM0.297444 54.4761C1.28792 64.1827 5.10125 73.3447 11.2422 80.8723L18.2746 73.7904C13.9165 68.1942 11.0936 61.5085 10.2022 54.4761H0.297444V54.4761ZM25.2572 81.0703L18.1753 87.8551C25.6534 94.0951 34.8648 98.0074 44.5715 99.0474V89.1427C37.5391 88.2513 30.8534 85.4284 25.2572 81.0703Z" fill="white"/>
</svg>
