<svg width="40" height="24" viewBox="0 0 40 24" fill="none" xmlns="http://www.w3.org/2000/svg">
<path d="M25.4077 2.56641H14.5923V21.433H25.4077V2.56641Z" fill="#FF5F00"/>
<path d="M15.279 12C15.279 8.16665 17.133 4.76665 19.9828 2.56666C17.8884 0.966664 15.2446 0 12.3605 0C5.5279 0 0 5.36665 0 12C0 18.6333 5.5279 23.9999 12.3605 23.9999C15.2446 23.9999 17.8884 23.0333 19.9828 21.4333C17.133 19.2666 15.279 15.8333 15.279 12Z" fill="#EB001B"/>
<path d="M39.9999 12C39.9999 18.6333 34.472 23.9999 27.6394 23.9999C24.7553 23.9999 22.1115 23.0333 20.0171 21.4333C22.9012 19.2333 24.721 15.8333 24.721 12C24.721 8.16665 22.8669 4.76665 20.0171 2.56666C22.1115 0.966664 24.7553 0 27.6394 0C34.472 0 39.9999 5.39999 39.9999 12Z" fill="#F79E1B"/>
</svg>
